<?xml version="1.0" standalone="no"?>
<!DOCTYPE svg PUBLIC "-//W3C//DTD SVG 20010904//EN"
 "http://www.w3.org/TR/2001/REC-SVG-20010904/DTD/svg10.dtd">
<svg version="1.0" xmlns="http://www.w3.org/2000/svg"
 width="2541.000000pt" height="2541.000000pt" viewBox="0 0 2541.000000 2541.000000"
 preserveAspectRatio="xMidYMid meet">
<metadata>
Created by potrace 1.14, written by Peter Selinger 2001-2017
</metadata>
<g transform="translate(0.000000,2541.000000) scale(0.100000,-0.100000)"
fill="#000000" stroke="none">
<path d="M1057 15244 c-1 -1 -148 -5 -327 -8 -179 -3 -341 -8 -360 -10 -19 -2
-82 -7 -140 -11 -58 -4 -116 -9 -130 -10 -14 -2 -31 -3 -38 -4 -16 -1 -9 -33
28 -126 44 -112 203 -430 309 -620 16 -27 45 -81 66 -120 21 -38 46 -83 55
-100 10 -16 29 -51 43 -76 68 -125 347 -611 605 -1054 19 -33 41 -71 49 -85 8
-14 22 -38 32 -55 10 -16 58 -97 106 -180 99 -169 202 -342 216 -365 9 -15
177 -302 234 -400 18 -30 72 -122 120 -205 48 -82 128 -222 178 -310 159 -282
217 -353 321 -400 94 -43 132 -45 696 -40 629 7 668 9 753 42 105 41 191 128
277 278 60 105 99 178 105 195 4 11 11 20 16 20 5 0 9 8 9 18 0 10 4 22 9 27
5 6 33 55 61 110 29 55 62 112 72 128 11 15 16 27 12 27 -3 0 -2 6 4 13 9 11
109 184 153 267 11 19 24 42 29 50 5 8 40 67 76 130 37 63 102 174 144 245 43
72 87 146 98 165 11 19 41 71 67 115 40 67 334 575 410 710 13 22 202 351 420
730 421 733 433 757 405 826 -10 22 -27 38 -59 53 -44 20 -61 20 -426 20 -691
-2 -1004 -10 -1081 -30 -79 -19 -126 -49 -170 -108 -30 -39 -526 -903 -595
-1036 -18 -36 -36 -67 -39 -70 -5 -5 -12 -18 -80 -145 -18 -33 -49 -89 -70
-125 -21 -36 -48 -83 -60 -105 -13 -22 -33 -58 -45 -80 -13 -22 -44 -74 -69
-115 -26 -41 -52 -87 -58 -102 -7 -16 -16 -28 -20 -28 -4 0 -8 -5 -8 -10 0
-12 -141 -226 -197 -300 -52 -69 -114 -131 -127 -127 -21 6 -344 512 -442 692
-6 11 -77 134 -157 273 -81 139 -147 255 -147 257 0 3 -17 33 -38 67 -21 35
-52 88 -69 118 -64 117 -298 530 -351 620 -156 265 -236 329 -446 357 -38 5
-425 11 -429 7z"/>
<path d="M6195 14379 c-64 -33 -116 -98 -200 -251 -43 -79 -141 -253 -218
-388 -77 -135 -151 -265 -164 -290 -14 -25 -31 -52 -37 -60 -7 -8 -17 -26 -23
-40 -6 -14 -88 -153 -183 -310 -95 -157 -226 -375 -292 -485 -65 -110 -123
-207 -128 -215 -32 -51 -173 -313 -221 -410 -122 -245 -183 -411 -204 -552
-11 -72 -21 -806 -11 -878 14 -112 21 -144 45 -191 28 -56 68 -90 130 -111 25
-8 166 -13 456 -16 696 -6 807 -6 887 1 76 6 187 30 219 47 13 7 35 63 45 110
2 11 14 97 19 135 21 170 26 792 10 1315 -10 351 -10 679 0 1045 10 358 11
978 1 1162 -6 119 -27 297 -40 338 -1 6 -6 22 -11 38 -9 33 -27 34 -80 6z"/>
<path d="M7887 14393 c-1 0 -38 -4 -82 -7 -128 -10 -183 -15 -212 -20 -16 -2
-51 -7 -80 -11 -88 -11 -88 -12 -86 -177 2 -138 12 -469 18 -593 2 -33 6 -143
10 -245 4 -102 9 -205 11 -230 4 -62 4 -758 0 -845 -2 -38 -7 -149 -11 -245
-4 -96 -9 -195 -10 -220 -5 -66 -19 -511 -19 -612 0 -115 8 -124 102 -118 87
5 306 5 401 0 123 -7 114 -58 105 605 -4 308 -8 731 -8 940 -1 331 1 380 14
380 8 0 23 -18 34 -40 52 -111 684 -1577 789 -1830 29 -71 41 -82 105 -93 75
-13 280 -9 312 7 27 13 52 70 195 446 69 182 142 366 169 430 8 17 41 98 74
180 98 241 247 600 305 734 52 121 79 159 95 134 10 -16 1 -648 -13 -963 -9
-186 -17 -851 -11 -882 8 -44 23 -50 109 -47 103 3 328 4 392 0 83 -5 91 -3
111 16 15 16 16 44 10 337 -4 177 -9 344 -11 371 -19 306 -25 1050 -12 1495
29 999 29 1057 -6 1062 -33 4 -90 7 -467 22 -80 4 -91 -12 -190 -270 -321
-843 -313 -822 -535 -1384 -122 -309 -243 -607 -265 -655 -5 -11 -19 -45 -32
-75 -29 -71 -71 -143 -82 -142 -15 0 -48 66 -130 262 -42 102 -81 194 -86 205
-5 11 -66 153 -135 315 -180 420 -323 745 -575 1305 -159 354 -207 454 -219
456 -16 2 -83 4 -84 2z"/>
<path d="M15657 14394 c-1 -1 -47 -5 -102 -8 -55 -3 -125 -8 -155 -11 -30 -3
-86 -7 -125 -9 -100 -7 -98 0 -89 -241 8 -210 12 -987 5 -1042 -2 -18 -6 -33
-10 -33 -3 0 -52 40 -107 89 -156 136 -230 181 -359 219 -122 36 -223 43 -382
29 -405 -37 -749 -329 -888 -752 -50 -154 -60 -224 -59 -445 0 -198 1 -209 32
-328 17 -68 50 -162 72 -208 41 -88 106 -202 125 -219 6 -5 23 -26 37 -45 41
-57 138 -148 213 -202 93 -66 192 -112 311 -145 85 -23 119 -27 244 -27 166
-1 209 4 317 40 140 47 283 139 411 265 75 73 81 70 82 -36 1 -85 8 -150 21
-191 l9 -30 238 1 c131 1 244 5 251 9 12 8 11 116 -4 291 -25 296 -26 1742 0
2005 2 19 6 127 10 240 4 113 9 232 10 265 10 211 9 495 -2 506 -10 10 -97 21
-106 13z m-887 -1513 c114 -47 205 -126 289 -248 173 -253 165 -632 -17 -883
-93 -128 -248 -226 -387 -245 -52 -7 -172 -7 -210 1 -236 44 -440 243 -517
504 -27 93 -27 287 0 391 44 165 129 295 263 402 151 121 397 154 579 78z"/>
<path d="M51 14343 c-9 -34 -16 -99 -26 -233 -19 -245 -22 -1170 -12 -2960 3
-565 7 -785 16 -813 19 -58 64 -103 118 -117 79 -20 979 -33 1188 -17 126 9
163 15 250 37 94 25 125 37 126 52 1 27 18 718 23 963 2 75 -10 172 -30 250
-9 33 -17 67 -19 75 -7 34 -75 210 -109 283 -19 42 -35 78 -35 80 1 1 -15 30
-35 64 -20 34 -36 64 -36 66 0 7 -182 318 -250 427 -118 190 -263 436 -365
620 -60 107 -117 211 -128 230 -11 19 -31 55 -45 80 -14 25 -46 81 -72 125
-25 44 -49 87 -53 95 -4 8 -15 29 -26 45 -10 17 -27 46 -38 65 -171 300 -389
620 -424 620 -4 0 -13 -17 -18 -37z"/>
<path d="M16434 14169 c-112 -13 -216 -85 -256 -176 -52 -118 -21 -282 66
-350 14 -11 57 -30 96 -43 61 -20 85 -22 164 -17 155 9 240 61 276 169 26 76
21 189 -11 252 -57 114 -193 181 -335 165z"/>
<path d="M12090 13419 c-258 -23 -457 -113 -641 -290 -215 -209 -324 -426
-378 -758 -9 -56 -7 -304 3 -376 65 -454 327 -781 739 -921 60 -20 100 -30
217 -51 67 -12 360 -11 435 2 161 28 220 47 352 112 152 76 353 244 353 296 0
33 -153 332 -175 341 -7 2 -54 -27 -105 -65 -271 -205 -616 -280 -885 -191
-61 20 -174 88 -233 139 -63 53 -131 154 -153 224 -22 72 -23 76 -6 76 6 0 57
3 112 7 96 7 141 10 270 21 33 2 92 7 130 10 39 3 90 8 115 10 25 3 81 7 125
10 75 5 105 8 215 20 25 3 74 7 110 10 36 3 81 7 100 10 19 2 60 7 90 10 49 5
76 9 143 21 37 6 104 54 130 91 34 49 45 107 40 214 -9 223 -81 439 -206 609
-56 77 -190 208 -265 259 -54 36 -132 76 -217 111 -20 8 -87 26 -135 36 -14 3
-59 7 -100 10 -41 3 -82 6 -90 7 -8 2 -49 0 -90 -4z m146 -469 c161 -35 333
-192 379 -347 3 -12 10 -45 14 -72 9 -58 -3 -76 -54 -85 -17 -2 -50 -8 -75
-11 -25 -4 -53 -9 -64 -11 -10 -2 -42 -6 -70 -9 -28 -3 -67 -7 -86 -10 -37 -5
-97 -12 -170 -19 -162 -18 -458 -26 -488 -15 -32 12 -37 34 -24 112 26 146
101 266 232 369 116 91 269 128 406 98z"/>
<path d="M24377 13424 c-1 -1 -36 -4 -77 -7 -111 -8 -145 -15 -245 -48 -221
-74 -414 -227 -562 -445 -76 -112 -139 -254 -173 -389 -28 -113 -31 -136 -34
-310 -6 -293 59 -532 202 -740 53 -78 165 -191 247 -250 106 -75 275 -153 375
-171 14 -3 34 -7 44 -11 109 -33 443 -37 577 -7 13 3 37 8 54 11 109 19 322
120 425 201 69 54 180 165 180 179 0 12 -131 274 -161 322 -8 11 -17 21 -22
21 -4 0 -35 -22 -70 -48 -84 -66 -161 -114 -243 -152 -102 -47 -101 -47 -199
-72 -73 -18 -118 -22 -235 -23 -132 0 -152 3 -221 27 -207 73 -373 236 -418
412 -6 22 -9 41 -8 42 1 1 47 5 102 9 55 3 111 8 125 10 14 2 70 6 125 10 55
3 116 8 135 10 19 2 76 7 125 10 50 4 101 8 115 10 14 2 70 7 125 11 55 3 109
8 120 10 11 2 56 6 100 10 44 3 87 7 95 9 8 2 47 7 85 10 192 18 263 46 308
123 29 49 30 54 31 167 1 139 -12 226 -55 355 -19 60 -95 218 -109 230 -4 3
-22 27 -40 55 -32 46 -159 180 -205 215 -126 96 -245 150 -410 186 -22 5 -205
21 -208 18z m73 -459 c120 -21 289 -153 347 -270 37 -73 51 -123 55 -182 2
-55 -11 -61 -202 -88 -14 -2 -43 -6 -65 -9 -22 -3 -60 -8 -85 -11 -25 -3 -61
-8 -80 -10 -19 -3 -62 -7 -95 -10 -33 -2 -96 -7 -140 -11 -144 -11 -329 -12
-352 -1 -13 6 -24 17 -24 26 -5 53 5 125 25 182 68 196 267 367 451 386 28 3
51 6 52 7 4 4 75 -3 113 -9z"/>
<path d="M18040 13403 c-227 -36 -415 -136 -591 -312 -97 -98 -163 -189 -224
-309 -35 -69 -81 -193 -91 -247 -3 -16 -12 -61 -19 -100 -13 -70 -14 -371 -1
-425 3 -14 11 -50 17 -80 70 -341 354 -685 679 -823 81 -34 138 -52 205 -63
17 -2 41 -7 55 -10 14 -4 71 -8 126 -10 202 -7 579 93 643 170 18 21 11 119
-19 256 -5 25 -12 56 -14 70 -8 48 -26 106 -38 122 -12 16 -23 13 -123 -37
-146 -72 -237 -94 -363 -90 -169 6 -315 70 -435 192 -197 201 -262 488 -172
759 66 197 234 373 415 434 78 26 113 32 200 35 105 2 182 -17 327 -80 69 -30
130 -55 135 -55 21 0 110 265 124 370 l6 49 -57 36 c-94 60 -218 110 -350 140
-97 23 -318 27 -435 8z"/>
<path d="M20108 13405 c-2 -1 -37 -5 -78 -9 -100 -8 -129 -14 -227 -42 -415
-120 -719 -522 -760 -1004 -33 -376 55 -680 271 -945 210 -256 489 -390 796
-380 116 4 125 5 220 36 72 23 158 64 235 112 50 31 191 135 216 159 8 7 26
21 41 30 40 26 48 10 72 -152 12 -79 38 -149 56 -155 16 -5 131 0 205 9 17 3
66 7 110 11 113 9 133 14 140 35 5 17 2 137 -10 325 -2 33 -6 112 -10 175 -4
63 -8 140 -10 170 -26 373 -26 681 0 895 3 22 7 60 10 85 8 67 35 262 39 285
2 11 7 40 10 65 4 25 9 57 12 72 4 22 0 29 -24 42 -28 14 -151 49 -217 61 -85
15 -179 26 -191 21 -22 -9 -41 -57 -64 -166 -12 -58 -26 -109 -32 -115 -6 -7
-35 17 -86 71 -163 171 -315 258 -512 292 -59 11 -206 22 -212 17z m222 -478
c70 -16 91 -22 130 -40 67 -31 119 -68 178 -129 145 -149 209 -313 210 -530 0
-244 -86 -435 -263 -586 -148 -126 -371 -163 -573 -96 -136 46 -286 183 -359
329 -93 184 -107 414 -37 605 32 85 57 132 112 205 128 168 310 258 507 249
44 -2 87 -5 95 -7z"/>
<path d="M22160 13339 c-47 -10 -105 -21 -130 -24 -25 -3 -54 -8 -65 -11 -11
-2 -47 -7 -80 -10 -33 -3 -71 -7 -85 -9 -14 -2 -31 -3 -38 -4 -25 -2 -29 -43
-11 -110 10 -36 20 -77 23 -91 24 -120 35 -184 41 -240 4 -36 9 -78 11 -95 18
-131 22 -618 12 -1313 -4 -276 -3 -316 11 -333 15 -17 36 -18 258 -21 214 -3
244 -1 259 13 14 14 16 38 14 155 -1 77 -4 173 -6 214 -8 151 -11 897 -4 955
21 166 30 193 83 252 87 96 227 123 517 98 154 -13 154 -13 169 83 17 111 20
141 27 293 l7 147 -27 17 c-20 13 -52 18 -134 20 -220 5 -335 -30 -565 -176
-60 -38 -112 -69 -117 -69 -13 0 -29 52 -35 115 -10 98 -23 148 -42 157 -4 3
-46 -3 -93 -13z"/>
<path d="M16180 13281 c-11 -7 -14 -31 -14 -93 1 -87 11 -311 19 -413 12 -151
15 -189 22 -325 9 -167 9 -514 0 -982 -6 -336 -3 -383 31 -392 10 -2 124 -4
254 -4 184 0 239 3 248 13 7 9 10 100 9 287 -5 649 -3 1035 5 1198 4 96 9 177
11 180 4 6 18 350 18 448 1 53 -3 76 -14 83 -13 10 -134 5 -189 -6 -31 -7
-152 -7 -200 -1 -94 13 -186 16 -200 7z"/>
</g>
</svg>
